<?xml version="1.0" encoding="utf-8"?>
<!-- Generator: Adobe Illustrator 19.2.1, SVG Export Plug-In . SVG Version: 6.00 Build 0)  -->
<svg version="1.1" id="Capa_1" xmlns="http://www.w3.org/2000/svg" xmlns:xlink="http://www.w3.org/1999/xlink" x="0px" y="0px"
	 viewBox="0 0 50 50" style="enable-background:new 0 0 50 50;" xml:space="preserve">
<style type="text/css">
	.st0{fill:#C00E19;}
</style>
<g>
	<g>
		<path class="st0" d="M26.6,20.4h12.8c0.4,0,0.7-0.3,0.7-0.7S39.7,19,39.4,19H26.6c-0.4,0-0.7,0.3-0.7,0.7S26.2,20.4,26.6,20.4z"/>
		<path class="st0" d="M26.6,16.6h12.8c0.4,0,0.7-0.3,0.7-0.7s-0.3-0.7-0.7-0.7H26.6c-0.4,0-0.7,0.3-0.7,0.7S26.2,16.6,26.6,16.6z"
			/>
		<path class="st0" d="M20,21.3c1.2,0,2.2-1,2.2-2.2V9.4c0-1.2-1-2.2-2.2-2.2h-7.9c-1.2,0-2.2,1-2.2,2.2v9.7c0,1.2,1,2.2,2.2,2.2H20
			z M12.2,8.5H20c0.5,0,0.9,0.4,0.9,0.9v7.9c-0.6-0.7-1.4-1.3-2.2-1.6c0.3-0.5,0.5-1.1,0.5-1.8c0-1.7-1.4-3.1-3.1-3.1
			c-1.7,0-3.1,1.4-3.1,3.1c0,0.6,0.2,1.3,0.5,1.8c-0.9,0.4-1.6,0.9-2.2,1.6V9.4C11.3,8.9,11.7,8.5,12.2,8.5z M14.3,13.9
			c0-1,0.8-1.8,1.8-1.8s1.8,0.8,1.8,1.8c0,1-0.8,1.8-1.8,1.8S14.3,14.9,14.3,13.9L14.3,13.9z M11.4,19.6c0.6-1.4,1.8-2.5,3.2-2.9
			c0.4,0.2,0.9,0.4,1.5,0.4c0.5,0,1-0.1,1.5-0.4c1.5,0.4,2.7,1.5,3.2,2.9C20.7,19.8,20.4,20,20,20h-7.9C11.8,20,11.5,19.8,11.4,19.6
			L11.4,19.6z"/>
		<path class="st0" d="M46.8,36.6c0.4,0,0.7-0.3,0.7-0.7v-6.8c0-1.5-1.2-2.6-2.6-2.7V13.7c0-1-0.4-1.9-1-2.5l-7.6-7.6
			c-0.7-0.7-1.6-1-2.5-1H8.7c-2,0-3.6,1.6-3.6,3.6v14.9c0,0.4,0.3,0.7,0.7,0.7s0.7-0.3,0.7-0.7V6.1c0-1.2,1-2.3,2.3-2.3h25.1
			c0.2,0,0.4,0,0.5,0.1v6.8c0,1.4,1.1,2.5,2.5,2.5h6.8c0,0.2,0.1,0.4,0.1,0.5v12.8H18.5c-0.6,0-1.2-0.3-1.6-0.7l-1.1-1.2
			c-0.7-0.7-1.6-1.2-2.6-1.2H5.2c-1.5,0-2.7,1.2-2.7,2.7v18.7c0,1.5,1.2,2.8,2.8,2.8h39.5c1.5,0,2.8-1.2,2.8-2.8V39
			c0-0.4-0.3-0.7-0.7-0.7c-0.4,0-0.7,0.3-0.7,0.7v5.8c0,0.8-0.6,1.4-1.4,1.4H5.3c-0.8,0-1.4-0.6-1.4-1.4V26c0-0.8,0.6-1.4,1.4-1.4
			h8.1c0.6,0,1.2,0.3,1.6,0.7l1.1,1.2c0.7,0.7,1.6,1.2,2.6,1.2h26.3c0.8,0,1.4,0.6,1.4,1.4v6.8C46.2,36.3,46.5,36.6,46.8,36.6
			L46.8,36.6z M35.6,10.7V4.8l7.1,7.1h-5.9C36.1,11.8,35.6,11.3,35.6,10.7z"/>
	</g>
</g>
</svg>
